<svg width="1000" height="1000" viewBox="0 0 1000 1000" fill="none" xmlns="http://www.w3.org/2000/svg">
<path d="M985.574 7.56006H7.56055V985.574H985.574V7.56006Z" fill="#2F323E"/>
<path d="M7.56055 7.56006H992.44V992.44H7.56055V7.56006Z" stroke="#F8C600" stroke-width="15"/>
<path d="M203.398 317.767C191.775 311.612 182.066 302.383 175.329 291.086C168.636 279.333 165.116 266.04 165.116 252.514C165.116 238.988 168.636 225.694 175.329 213.941C182.066 202.645 191.775 193.415 203.398 187.261C215.758 180.739 229.562 177.436 243.536 177.656C255.189 177.482 266.751 179.726 277.493 184.248C287.347 188.478 296.06 194.98 302.921 203.222L281.405 223.075C277.022 217.707 271.485 213.394 265.207 210.458C258.929 207.522 252.07 206.038 245.14 206.117C236.791 205.959 228.546 207.982 221.218 211.985C214.3 215.795 208.608 221.493 204.807 228.415C200.941 235.825 198.923 244.059 198.923 252.416C198.923 260.773 200.941 269.007 204.807 276.416C208.607 283.339 214.299 289.038 221.218 292.847C228.546 296.849 236.791 298.871 245.14 298.715C252.089 298.787 258.963 297.28 265.245 294.309C271.527 291.337 277.053 286.978 281.405 281.561L302.921 301.414C296.068 309.793 287.29 316.39 277.336 320.642C266.56 325.163 254.967 327.413 243.282 327.253C229.402 327.485 215.687 324.223 203.398 317.767Z" fill="#FCBE0E"/>
<path d="M417.759 293.864H350.687L337.875 324.906H303.645L368.193 180.16H401.231L465.78 324.906H430.591L417.759 293.864ZM407.216 268.436L384.331 213.002L361.406 268.416L407.216 268.436Z" fill="white"/>
<path d="M572.755 324.906L544.901 284.533H514.133V324.906H480.763V180.16H543.199C554.612 179.901 565.949 182.082 576.452 186.556C585.461 190.337 593.099 196.78 598.343 205.024C603.587 213.267 606.186 222.917 605.792 232.679C606.188 242.438 603.541 252.079 598.218 260.269C592.895 268.458 585.159 274.791 576.08 278.392L608.491 324.925L572.755 324.906ZM564.305 213.901C557.665 209.121 549.561 206.816 541.4 207.388H514.133V257.853H541.4C549.573 258.428 557.687 256.093 564.305 251.261C566.79 248.833 568.766 245.932 570.114 242.729C571.463 239.526 572.158 236.086 572.158 232.611C572.158 229.135 571.463 225.695 570.114 222.492C568.766 219.29 566.79 216.389 564.305 213.96V213.901Z" fill="white"/>
<path d="M203.613 565.83C191.94 559.65 182.184 550.388 175.407 539.052C168.721 527.377 165.204 514.157 165.204 500.704C165.204 487.25 168.721 474.03 175.407 462.356C182.178 451.014 191.935 441.751 203.613 435.578C216.159 429.182 230.041 425.848 244.123 425.848C258.204 425.848 272.086 429.182 284.632 435.578C296.42 441.891 306.275 451.284 313.145 462.757C320.015 474.229 323.644 487.351 323.644 500.723C323.644 514.096 320.015 527.217 313.145 538.69C306.275 550.163 296.42 559.556 284.632 565.869C272.086 572.264 258.204 575.598 244.123 575.598C230.041 575.598 216.159 572.264 203.613 565.869V565.83ZM267.262 541.105C274.049 537.222 279.627 531.535 283.38 524.675C287.245 517.265 289.264 509.032 289.264 500.674C289.264 492.317 287.245 484.084 283.38 476.674C279.627 469.814 274.049 464.127 267.262 460.243C260.161 456.359 252.197 454.323 244.103 454.323C236.009 454.323 228.045 456.359 220.944 460.243C214.146 464.113 208.564 469.804 204.826 476.674C200.961 484.084 198.942 492.317 198.942 500.674C198.942 509.032 200.961 517.265 204.826 524.675C208.564 531.545 214.146 537.236 220.944 541.105C228.045 544.99 236.009 547.026 244.103 547.026C252.197 547.026 260.161 544.99 267.262 541.105Z" fill="#FCBE0E"/>
<path d="M480.919 428.302V573.048H453.535L381.494 485.144V573.067H348.418V428.321H375.998L447.823 516.225V428.302H480.919Z" fill="white"/>
<path d="M188.199 816.514C178.966 814.095 170.259 809.99 162.517 804.407L173.862 779.174C180.613 783.992 188.096 787.69 196.023 790.128C204.28 792.849 212.915 794.249 221.608 794.274C228.877 794.766 236.145 793.3 242.655 790.03C244.708 788.948 246.428 787.327 247.63 785.343C248.833 783.358 249.473 781.084 249.482 778.763C249.506 777.12 249.157 775.492 248.458 774.004C247.76 772.517 246.732 771.207 245.452 770.176C242.401 767.693 238.892 765.832 235.124 764.699C230.938 763.395 225.266 761.876 218.107 760.142C208.945 758.087 199.917 755.474 191.075 752.318C184.055 749.725 177.813 745.382 172.942 739.701C167.667 733.164 164.986 724.912 165.412 716.522C165.343 708.391 167.729 700.429 172.258 693.676C177.387 686.408 184.525 680.794 192.796 677.519C203.437 673.196 214.861 671.131 226.342 671.455C235.454 671.445 244.533 672.555 253.374 674.761C261.533 676.693 269.336 679.901 276.494 684.267L266.186 709.696C254.071 702.451 240.261 698.524 226.146 698.312C218.932 697.779 211.72 699.363 205.393 702.869C203.329 704.113 201.625 705.873 200.449 707.975C199.272 710.078 198.664 712.45 198.684 714.86C198.686 717.284 199.44 719.649 200.841 721.628C202.242 723.607 204.222 725.103 206.508 725.911C214.118 729.094 222.036 731.487 230.136 733.051C239.299 735.126 248.332 737.739 257.188 740.875C264.17 743.445 270.402 747.714 275.321 753.296C280.617 759.73 283.305 767.918 282.851 776.24C282.915 784.324 280.506 792.234 275.947 798.91C270.727 806.18 263.521 811.79 255.193 815.067C244.508 819.354 233.059 821.411 221.55 821.111C210.271 821.174 199.041 819.626 188.199 816.514Z" fill="#FCBE0E"/>
<path d="M401.543 789.247H334.452L321.659 820.27H287.409L351.958 675.524H384.995L449.544 820.27H414.336L401.543 789.247ZM391 763.819L368.095 708.385L345.171 763.819H391Z" fill="white"/>
<path d="M463.979 676.463H497.408V793.942H569.918V821.326H463.979V676.463Z" fill="white"/>
<path d="M700.522 794.372V821.209H588.657V676.463H697.843V703.339H621.89V734.792H688.962V760.846H621.89V794.353L700.522 794.372Z" fill="white"/>
</svg>
